HIERARCHY
ROOT Hips
{
	OFFSET 0.000000 88.474243 0.000000
	CHANNELS 6 Xposition Yposition Zposition Zrotation Yrotation Xrotation 
	JOINT Hips_Spine
	{
		OFFSET 0.000000 0.000000 0.000000
		CHANNELS 3 Zrotation Yrotation Xrotation
		JOINT Spine
		{
			OFFSET 0.005100 8.711998 -0.691000
			CHANNELS 3 Zrotation Yrotation Xrotation
			JOINT Spine1
			{
				OFFSET -0.009200 8.660301 -1.275000
				CHANNELS 3 Zrotation Yrotation Xrotation
				JOINT Spine2
				{
					OFFSET 0.006300 9.852501 -1.857000
					CHANNELS 3 Zrotation Yrotation Xrotation
					JOINT Spine2_Neck
					{
						OFFSET 0.000000 0.000000 0.000000
						CHANNELS 3 Zrotation Yrotation Xrotation
						JOINT Neck
						{
							OFFSET 0.016300 11.420799 -0.263300
							CHANNELS 3 Zrotation Yrotation Xrotation
							End Site #name: Head
							{
								OFFSET -0.019200 9.262405 2.362500
							}
						}
					}
					JOINT Spine2_LeftShoulder
					{
						OFFSET 0.000000 0.000000 0.000000
						CHANNELS 3 Zrotation Yrotation Xrotation
						JOINT LeftShoulder
						{
							OFFSET 5.616900 6.732201 -0.345700
							CHANNELS 3 Zrotation Yrotation Xrotation
							JOINT LeftArm
							{
								OFFSET 10.664888 -0.183372 -2.440700
								CHANNELS 3 Zrotation Yrotation Xrotation
								JOINT LeftForeArm
								{
									OFFSET 27.459126 0.000000 0.000000
									CHANNELS 3 Zrotation Yrotation Xrotation
									End Site #name: LeftHand
									{
										OFFSET 21.306858 0.000000 0.000000
									}
								}
							}
						}
					}
					JOINT Spine2_RightShoulder
					{
						OFFSET 0.000000 0.000000 0.000000
						CHANNELS 3 Zrotation Yrotation Xrotation
						JOINT RightShoulder
						{
							OFFSET -5.580300 6.737503 -0.344400
							CHANNELS 3 Zrotation Yrotation Xrotation
							JOINT RightArm
							{
								OFFSET -10.679335 -0.188484 -2.383900
								CHANNELS 3 Zrotation Yrotation Xrotation
								JOINT RightForeArm
								{
									OFFSET -27.503529 0.000000 0.000000
									CHANNELS 3 Zrotation Yrotation Xrotation
									End Site #name: RightHand
									{
										OFFSET -21.306808 0.000000 0.000000
									}
								}
							}
						}
					}
				}
			}
		}
	}
	JOINT Hips_LeftUpLeg
	{
		OFFSET 0.000000 0.000000 0.000000
		CHANNELS 3 Zrotation Yrotation Xrotation
		JOINT LeftUpLeg
		{
			OFFSET 6.857700 -6.739601 0.312100
			CHANNELS 3 Zrotation Yrotation Xrotation
			JOINT LeftLeg
			{
				OFFSET -0.367590 -34.731552 -4.572400
				CHANNELS 3 Zrotation Yrotation Xrotation
				End Site #name: LeftFoot
				{
					OFFSET 0.367590 -34.656704 -6.067400
				}
			}
		}
	}
	JOINT Hips_RightUpLeg
	{
		OFFSET 0.000000 0.000000 0.000000
		CHANNELS 3 Zrotation Yrotation Xrotation
		JOINT RightUpLeg
		{
			OFFSET -6.876100 -6.733299 0.301000
			CHANNELS 3 Zrotation Yrotation Xrotation
			JOINT RightLeg
			{
				OFFSET 0.347353 -34.795158 -4.515900
				CHANNELS 3 Zrotation Yrotation Xrotation
				End Site #name: RightFoot
				{
					OFFSET -0.347353 -34.589367 -6.070300
				}
			}
		}
	}
}
MOTION
Frames: 11
Frame Time: 0.041667
0.036606 0.024939 -0.033699 -4.338194 -0.045136 -4.251898 -0.000000 -0.000000 0.000000 2.205779 1.690564 17.989681 0.915209 1.217499 2.375019 0.000000 0.000000 0.000000 0.861004 1.063732 0.885378 1.185719 -0.868796 5.963616 0.846335 0.439425 2.790985 -9.126645 -9.788435 2.083975 -59.372067 2.626821 10.298973 0.572262 -23.642460 -0.151744 1.486581 1.043107 2.922842 6.779902 -5.914953 0.332345 71.381920 7.957404 34.152861 -0.162286 24.049845 1.000972 0.000000 0.000000 0.000000 7.967355 8.528143 -74.058414 6.073290 -4.416192 67.980057 0.000000 0.000000 0.000000 -6.230410 -7.577492 -63.041764 -2.287801 -0.663113 67.200924 
0.058995 0.058388 -0.104455 -4.238721 0.891339 -2.225454 -0.000000 -0.000000 -0.000000 2.405037 0.133945 15.623059 0.690337 0.604735 2.244173 0.000000 0.000000 0.000000 0.883843 0.679809 1.756638 0.831136 -0.989823 5.499688 1.006188 0.734321 2.531831 -9.185427 -7.584986 1.109958 -63.755059 -1.575348 4.994421 0.085720 -28.005585 0.813976 0.560311 0.629565 2.487267 7.106726 -6.673174 0.297138 73.519986 10.504537 28.952725 0.107637 26.934676 0.530039 0.000000 0.000000 -0.000000 7.339853 9.588037 -76.652121 6.444940 -3.701248 67.864102 0.000000 0.000000 0.000000 -5.240587 -8.230435 -67.841944 -1.694663 -0.145933 68.389224 
0.071887 0.046324 -0.161487 -3.833543 1.690123 -1.395369 -0.000000 0.000000 -0.000000 3.199118 0.263746 17.024344 0.620160 0.636019 2.138211 0.000000 0.000000 0.000000 0.805724 0.513463 1.774647 1.399706 -0.163339 5.180952 0.921976 0.722034 2.388218 -10.084268 -7.034780 0.904049 -62.292891 -0.312457 5.627030 0.073617 -26.807446 0.725753 0.624072 0.673908 2.506858 6.368975 -6.535522 0.247667 73.312920 12.307260 27.367097 0.149659 29.130030 0.167980 -0.000000 0.000000 0.000000 7.201765 8.992489 -77.855637 6.134098 -3.967731 68.016342 0.000000 0.000000 0.000000 -5.775617 -7.975086 -69.325061 -1.866275 -0.166492 69.849265 
0.082697 0.027786 -0.218097 -3.791066 2.023502 -1.245882 -0.000000 0.000000 -0.000000 3.292931 0.912858 17.706784 0.572385 0.604947 2.611634 0.000000 0.000000 0.000000 0.909939 0.556705 1.933772 1.411557 -0.236297 6.119554 0.902183 0.640778 2.534059 -9.131409 -6.574849 0.665387 -63.946862 -3.021072 2.150725 0.057550 -26.084658 0.703356 0.727068 0.666109 2.762090 6.214494 -7.016005 0.164038 75.061592 14.235635 25.850787 0.105338 33.827733 0.026603 -0.000000 0.000000 0.000000 7.021493 8.884604 -77.708299 6.161895 -3.970326 67.732359 0.000000 0.000000 0.000000 -5.690975 -8.385233 -70.395886 -1.503581 -0.045603 71.067888 
0.094982 0.018362 -0.268288 -3.775370 2.197416 -1.269273 -0.000000 0.000000 -0.000000 3.318107 1.178218 18.474514 0.534426 0.572577 2.957204 0.000000 0.000000 0.000000 0.896363 0.558170 2.080372 1.485900 -0.210425 6.818038 0.851820 0.565370 2.629424 -8.508218 -6.308607 0.585397 -64.993243 -5.527080 0.004461 0.092527 -27.121212 0.642744 0.736947 0.656013 3.084728 6.701679 -7.518738 0.050260 76.093527 15.834849 25.202917 0.049817 38.031391 -0.047166 -0.000000 0.000000 0.000000 6.921875 8.975505 -77.753280 6.191718 -3.820814 67.835494 0.000000 0.000000 -0.000000 -5.742602 -8.521548 -71.076393 -1.327963 -0.004178 71.950486 
0.106456 0.015662 -0.313531 -3.792333 2.194285 -1.323105 -0.000000 0.000000 -0.000000 3.338490 1.073481 19.042282 0.537548 0.542961 3.137753 0.000000 0.000000 0.000000 0.860620 0.528416 2.181563 1.531710 -0.213282 7.300138 0.819086 0.517921 2.766239 -8.174287 -6.069276 0.515583 -65.653587 -6.871953 0.238791 0.100933 -28.081102 0.617660 0.700898 0.626889 3.320684 7.149611 -7.575385 0.055642 76.212795 17.118629 24.168899 0.010336 40.675895 -0.078605 -0.000000 0.000000 0.000000 6.940441 9.234990 -77.866453 6.182198 -3.771639 68.203488 0.000000 0.000000 -0.000000 -5.847986 -8.487563 -71.310711 -1.283350 -0.009285 72.382313 
0.116362 0.017941 -0.355237 -3.808185 2.112316 -1.345222 -0.000000 0.000000 -0.000000 3.422762 0.848399 19.478396 0.520339 0.517715 3.171628 0.000000 0.000000 0.000000 0.829199 0.496073 2.213011 1.547158 -0.270629 7.536922 0.793651 0.484606 2.798303 -7.838470 -5.534828 0.352669 -65.861300 -7.445794 1.040136 0.101953 -29.064553 0.628232 0.666857 0.596105 3.357773 7.355323 -7.440734 0.112526 76.008332 17.584602 23.316766 0.007430 41.989424 -0.059856 -0.000000 0.000000 0.000000 7.006387 9.376736 -77.941594 6.195234 -3.765307 68.483061 0.000000 0.000000 -0.000000 -5.894907 -8.492990 -71.293532 -1.269433 -0.004641 72.442880 
0.122437 0.021693 -0.394678 -3.816091 2.060495 -1.341739 -0.000000 0.000000 -0.000000 3.490832 0.665125 19.667452 0.488874 0.495649 3.141045 0.000000 0.000000 0.000000 0.802474 0.468596 2.222554 1.523557 -0.313214 7.714764 0.779644 0.475533 2.812330 -7.593425 -4.990852 0.233743 -65.813225 -7.496947 2.267222 0.093407 -30.115446 0.653418 0.635384 0.585016 3.315170 7.342851 -7.227001 0.188304 76.000023 17.588630 22.576341 0.028383 42.647871 -0.018056 -0.000000 0.000000 0.000000 7.049249 9.388790 -77.989424 6.217539 -3.758528 68.599034 0.000000 0.000000 -0.000000 -5.909449 -8.477854 -71.175408 -1.269840 -0.001970 72.349403 
0.121643 0.025668 -0.432937 -3.824834 2.040122 -1.319798 -0.000000 0.000000 -0.000000 3.531683 0.542414 19.798203 0.459935 0.493740 3.122059 0.000000 0.000000 0.000000 0.782177 0.457459 2.237450 1.484876 -0.340737 7.857141 0.766095 0.481070 2.819473 -7.312077 -4.478752 0.115238 -65.701551 -7.120881 3.302121 0.084532 -31.038240 0.672079 0.606327 0.585336 3.268644 7.155689 -7.020403 0.261759 76.214496 17.444105 21.798359 0.044571 43.337847 0.030851 -0.000000 0.000000 0.000000 7.067537 9.368958 -78.016775 6.219279 -3.774885 68.622383 0.000000 0.000000 -0.000000 -5.904286 -8.465687 -71.095461 -1.258337 0.003880 72.268098 
0.115098 0.029485 -0.470195 -3.829553 2.040583 -1.300461 -0.000000 0.000000 -0.000000 3.569628 0.456337 19.970902 0.425404 0.506216 3.115154 0.000000 0.000000 0.000000 0.753838 0.456893 2.219280 1.442028 -0.351734 7.963443 0.745383 0.488087 2.800054 -7.021038 -3.926347 -0.027274 -65.660345 -6.719460 4.138735 0.076749 -31.857481 0.693709 0.571707 0.589759 3.215158 6.875255 -6.930179 0.319596 76.587470 17.148864 20.970386 0.057688 44.298989 0.081270 -0.000000 0.000000 0.000000 7.073022 9.336525 -78.028640 6.212866 -3.803200 68.595430 0.000000 0.000000 -0.000000 -5.883753 -8.462882 -71.101056 -1.253738 0.016212 72.271452 
0.103614 0.033491 -0.506691 -3.836780 2.055217 -1.289037 -0.000000 0.000000 -0.000000 3.600055 0.376503 20.163420 0.398434 0.512378 3.105337 0.000000 0.000000 0.000000 0.717427 0.459002 2.182543 1.404414 -0.346685 8.063606 0.716027 0.492873 2.770231 -6.766467 -3.391860 -0.160468 -65.706326 -6.433813 4.776269 0.071199 -32.447078 0.706441 0.527275 0.595704 3.157683 6.556414 -6.945932 0.358959 77.092523 16.807537 20.084348 0.078624 45.826645 0.142531 -0.000000 0.000000 0.000000 7.077775 9.308655 -78.044470 6.204957 -3.824276 68.573128 0.000000 0.000000 -0.000000 -5.862949 -8.467497 -71.160463 -1.258259 0.025145 72.335621 
